<svg width="54" height="56" viewBox="0 0 54 56" fill="none" xmlns="http://www.w3.org/2000/svg">
    <g id="noun-education-1052908 1">
        <g id="Group">
            <path id="Vector" d="M26.9994 23.2453C26.6879 23.2453 26.2725 23.1397 25.9609 23.034L12.4609 18.2793V32.7548C12.4609 33.1774 12.6686 33.4944 13.084 33.7057C17.4456 35.8189 22.2225 36.8755 26.9994 36.8755C31.8802 36.8755 36.5532 35.8189 40.9148 33.7057C41.2263 33.4944 41.5379 33.1774 41.5379 32.7548V18.2793L28.0379 23.034C27.7263 23.1397 27.3109 23.2453 26.9994 23.2453Z" fill="#4B4845"/>
            <path id="Vector_2" d="M44.6562 37.1926V51.2455C44.6562 52.0907 45.3832 52.8304 46.2139 52.8304H49.3293C50.1601 52.8304 50.887 52.0907 50.887 51.2455V37.1926C49.9524 37.7209 48.9139 38.0379 47.7716 38.0379C46.6293 38.0379 45.5909 37.7209 44.6562 37.1926Z" fill="#4B4845"/>
            <path id="Vector_3" d="M48.8089 27.5774V13.5246L51.1974 12.6793C51.6127 12.5737 51.9243 12.151 51.9243 11.7284C51.9243 11.3057 51.6127 10.8831 51.1974 10.7774L27.3127 2.32461C27.105 2.21895 26.7935 2.21895 26.5858 2.32461L2.7012 10.7774C2.38966 10.7774 2.07812 11.2001 2.07812 11.6227C2.07812 12.0454 2.38966 12.468 2.80505 12.5737L26.6897 21.0265C26.7935 21.0265 26.8974 21.1322 27.0012 21.1322C27.105 21.1322 27.2089 21.1322 27.3127 21.0265L46.732 14.1586V27.5774C44.9666 28.0001 43.6166 29.6906 43.6166 31.6982C43.6166 34.0227 45.4858 35.9246 47.7704 35.9246C50.055 35.9246 51.9243 34.0227 51.9243 31.6982C51.9243 29.6906 50.5743 28.1057 48.8089 27.5774Z" fill="#4B4845"/>
        </g>
    </g>
</svg>
