<svg width="32" height="33" viewBox="0 0 32 33" fill="none" xmlns="http://www.w3.org/2000/svg">
    <g id="Icons">
        <path id="Vector" d="M16 29.5C12.3546 29.5616 8.83362 28.175 6.20914 25.6442C3.58467 23.1135 2.07097 19.6452 2 16C2.07097 12.3548 3.58467 8.88651 6.20914 6.35577C8.83362 3.82502 12.3546 2.4384 16 2.49998C19.6454 2.4384 23.1664 3.82502 25.7909 6.35577C28.4153 8.88651 29.929 12.3548 30 16C29.929 19.6452 28.4153 23.1135 25.7909 25.6442C23.1664 28.175 19.6454 29.5616 16 29.5ZM27.51 19.24C25.6862 20.395 23.6436 21.161 21.51 21.49C21.1921 23.4126 20.5461 25.2663 19.6 26.97C21.4497 26.4258 23.1378 25.4367 24.5167 24.0891C25.8957 22.7415 26.9234 21.0766 27.51 19.24ZM16 4.49998C14.85 4.49998 13.39 6.57999 12.59 10.19C13.7225 10.0663 14.8608 10.0029 16 9.99999C17.1392 10.0029 18.2775 10.0663 19.41 10.19C18.61 6.57999 17.15 4.49998 16 4.49998ZM16 12C14.7398 12.0003 13.4809 12.0772 12.23 12.23C11.9232 14.734 11.9232 17.266 12.23 19.77C14.734 20.0768 17.266 20.0768 19.77 19.77C19.9228 18.5191 19.9996 17.2601 20 16C19.9996 14.7398 19.9228 13.4808 19.77 12.23C18.5191 12.0772 17.2602 12.0003 16 12ZM10.19 12.59C6.58 13.39 4.5 14.85 4.5 16C4.5 17.15 6.58 18.61 10.19 19.41C9.93671 17.1437 9.93671 14.8563 10.19 12.59ZM16 27.5C17.15 27.5 18.61 25.42 19.41 21.81C18.2775 21.9337 17.1392 21.9971 16 22C14.8608 21.9971 13.7225 21.9337 12.59 21.81C13.39 25.42 14.85 27.5 16 27.5ZM21.81 19.41C25.42 18.61 27.5 17.15 27.5 16C27.5 14.85 25.42 13.39 21.81 12.59C21.9337 13.7225 21.9971 14.8608 22 16C21.9971 17.1392 21.9337 18.2775 21.81 19.41ZM12.4 26.97C11.462 25.2681 10.8227 23.4179 10.51 21.5C8.37644 21.171 6.33379 20.405 4.51 19.25C5.09612 21.0825 6.12143 22.7439 7.49662 24.0895C8.87181 25.435 10.5551 26.4239 12.4 26.97ZM4.49 12.76C6.31379 11.605 8.35644 10.839 10.49 10.51C10.8016 8.58859 11.4409 6.73498 12.38 5.02999C10.534 5.57701 8.84996 6.56741 7.47469 7.9148C6.09942 9.26218 5.07472 10.9256 4.49 12.76ZM19.6 5.02999C20.538 6.7319 21.1773 8.58203 21.49 10.5C23.6236 10.829 25.6662 11.595 27.49 12.75C26.9039 10.9175 25.8786 9.25606 24.5034 7.9105C23.1282 6.56494 21.4449 5.57606 19.6 5.02999Z" fill="#9A9590"/>
    </g>
</svg>