<svg width="18" height="21" viewBox="0 0 18 21" fill="none" xmlns="http://www.w3.org/2000/svg">
<g id="bi:arrow-up">
<path id="Vector" fill-rule="evenodd" clip-rule="evenodd" d="M18.0011 10.5001C18.0011 10.3261 17.9334 10.1592 17.8129 10.0361C17.6923 9.91304 17.5288 9.8439 17.3583 9.8439L2.19586 9.8439L6.24201 5.71477C6.36272 5.59155 6.43053 5.42442 6.43053 5.25015C6.43053 5.07588 6.36272 4.90875 6.24201 4.78552C6.12129 4.6623 5.95757 4.59307 5.78686 4.59307C5.61615 4.59307 5.45243 4.6623 5.33172 4.78552L0.188863 10.0355C0.128996 10.0965 0.0814985 10.1689 0.0490902 10.2486C0.0166819 10.3284 0 10.4138 0 10.5001C0 10.5865 0.0166819 10.6719 0.0490902 10.7517C0.0814985 10.8314 0.128996 10.9038 0.188863 10.9648L5.33172 16.2148C5.39149 16.2758 5.46245 16.3242 5.54054 16.3572C5.61863 16.3902 5.70234 16.4072 5.78686 16.4072C5.95757 16.4072 6.12129 16.338 6.24201 16.2148C6.36272 16.0915 6.43053 15.9244 6.43053 15.7501C6.43053 15.5759 6.36272 15.4087 6.24201 15.2855L2.19586 11.1564L17.3583 11.1564C17.5288 11.1564 17.6923 11.0873 17.8129 10.9642C17.9334 10.8411 18.0011 10.6742 18.0011 10.5001Z" fill="#9A9590"/>
</g>
</svg>
