<svg width="40" height="22" viewBox="0 0 40 22" fill="none" xmlns="http://www.w3.org/2000/svg">
<g clip-path="url(#clip0_400_5721)">
<mask id="mask0_400_5721" style="mask-type:luminance" maskUnits="userSpaceOnUse" x="0" y="0" width="42" height="21">
<path d="M41.9512 0H0V20.4286H41.9512V0Z" fill="white"/>
</mask>
<g mask="url(#mask0_400_5721)">
<path d="M0.128051 20.3619C0.0875247 20.0557 0.0875247 19.7495 0.128051 19.4434C0.695423 19.386 1.15134 19.319 1.49582 19.2424C1.84029 19.1658 2.13411 19.0319 2.37727 18.8405C2.62043 18.6301 2.85345 18.3239 3.07635 17.922C3.29924 17.501 3.56267 16.9173 3.86661 16.171L10.4319 0.268336C10.6548 0.191789 10.9182 0.13438 11.2222 0.0961055C11.5464 0.0578327 11.8199 0.0386963 12.0428 0.0386963L18.5777 16.4293C18.8614 17.1182 19.0945 17.6637 19.2768 18.0655C19.4592 18.4482 19.6618 18.7257 19.8847 18.898C20.1076 19.0702 20.3913 19.1946 20.7357 19.2711C21.0803 19.3285 21.5564 19.386 22.1643 19.4434C22.2049 19.7495 22.2049 20.0557 22.1643 20.3619C21.4551 20.3619 20.7256 20.3524 19.9759 20.3332C19.2261 20.3141 18.4764 20.3045 17.7267 20.3045C16.9566 20.3045 16.1766 20.3141 15.3863 20.3332C14.6163 20.3524 13.8462 20.3619 13.0762 20.3619C13.0155 20.0749 13.0155 19.7687 13.0762 19.4434C14.0692 19.3477 14.7581 19.2615 15.1431 19.185C15.5281 19.0893 15.7206 18.8597 15.7206 18.4961C15.7206 18.343 15.6902 18.1708 15.6294 17.9794C15.5687 17.788 15.4876 17.5488 15.3863 17.2618L13.6538 12.8412H6.81494L5.29518 16.8025C5.15333 17.1661 5.04188 17.4723 4.96083 17.7211C4.90004 17.9507 4.86965 18.1612 4.86965 18.3525C4.86965 18.7736 5.07228 19.0415 5.47754 19.1563C5.90307 19.252 6.59201 19.3477 7.54437 19.4434C7.58494 19.7687 7.58494 20.0749 7.54437 20.3619C6.85545 20.3619 6.17663 20.3524 5.50794 20.3332C4.83925 20.3141 4.16044 20.3045 3.47149 20.3045C2.90412 20.3045 2.35701 20.3141 1.83016 20.3332C1.30332 20.3524 0.735946 20.3619 0.128051 20.3619ZM7.27083 11.6356H13.1978L10.2192 4L7.27083 11.6356Z" fill="#F5540C"/>
<path d="M33.9691 16.4947C33.812 17.5823 33.6942 18.6884 33.6157 19.8131C32.8959 20.0109 32.1631 20.19 31.4171 20.3507C30.6712 20.5114 29.8729 20.5917 29.0223 20.5917C27.5697 20.5917 26.3069 20.3198 25.2337 19.776C24.1737 19.2323 23.3492 18.4722 22.7603 17.4958C22.1714 16.5071 21.877 15.3453 21.877 14.0105C21.877 12.6633 22.1714 11.4769 22.7603 10.451C23.3492 9.41288 24.1801 8.60336 25.2533 8.0225C26.3265 7.44159 27.5893 7.15113 29.0419 7.15113C29.5784 7.15113 30.0495 7.18208 30.4553 7.24387C30.861 7.30565 31.3518 7.39832 31.9275 7.52194C32.1892 7.57134 32.4182 7.6208 32.6146 7.67027C32.8109 7.71967 33.0136 7.74436 33.2231 7.74436C33.2885 7.74436 33.3605 7.74436 33.439 7.74436C33.5176 7.73205 33.5829 7.71967 33.6354 7.70735C33.6614 8.25112 33.6877 8.81346 33.7138 9.39431C33.74 9.97523 33.7792 10.5808 33.8316 11.2112C33.5699 11.2482 33.3473 11.2606 33.1642 11.2482C32.6538 9.01118 31.3125 7.89269 29.1401 7.89269C28.2632 7.89269 27.5172 8.05952 26.9023 8.39325C26.2872 8.7146 25.7898 9.15951 25.4104 9.72804C25.0309 10.2842 24.7561 10.9145 24.5859 11.619C24.4157 12.3235 24.3307 13.0588 24.3307 13.8251C24.3307 14.9127 24.5009 15.9138 24.8411 16.8284C25.1813 17.7429 25.7179 18.4722 26.4508 19.0159C27.1835 19.5597 28.1258 19.8316 29.2775 19.8316C30.3636 19.8316 31.2274 19.5597 31.8686 19.0159C32.5229 18.4722 32.994 17.6255 33.282 16.4762C33.3866 16.4762 33.4914 16.4762 33.5961 16.4762C33.7138 16.4762 33.8381 16.4823 33.9691 16.4947ZM29.0419 5.18605C29.4476 4.90179 29.8795 4.61752 30.3375 4.33327C30.7955 4.04901 31.2732 3.77093 31.7705 3.49902C31.9929 3.5361 32.1762 3.61643 32.3201 3.74003C32.0584 3.99957 31.7705 4.30855 31.4564 4.66696C31.1423 5.01303 30.8347 5.36526 30.5338 5.72367C30.2458 6.06974 29.9973 6.37256 29.7878 6.63206C29.6962 6.65676 29.5784 6.67533 29.4345 6.68771C29.3036 6.70003 29.1662 6.70622 29.0223 6.70622C28.9045 6.70622 28.7736 6.70003 28.6297 6.68771C28.4988 6.67533 28.381 6.65676 28.2763 6.63206C28.0669 6.37256 27.8117 6.06974 27.5107 5.72367C27.2098 5.36526 26.9023 5.01303 26.5881 4.66696C26.2872 4.30855 25.9992 3.99957 25.7244 3.74003C25.8815 3.62879 26.0646 3.54847 26.2741 3.49902C26.7713 3.77093 27.2491 4.04901 27.7071 4.33327C28.1782 4.60517 28.6232 4.88943 29.0419 5.18605Z" fill="#F77C45"/>
<mask id="mask1_400_5721" style="mask-type:alpha" maskUnits="userSpaceOnUse" x="21" y="3" width="13" height="18">
<path d="M33.9691 16.4947C33.812 17.5823 33.6942 18.6884 33.6157 19.8131C32.8959 20.0109 32.1631 20.19 31.4171 20.3507C30.6712 20.5114 29.8729 20.5917 29.0223 20.5917C27.5697 20.5917 26.3069 20.3198 25.2337 19.776C24.1737 19.2323 23.3492 18.4722 22.7603 17.4958C22.1714 16.5071 21.877 15.3453 21.877 14.0105C21.877 12.6633 22.1714 11.4769 22.7603 10.451C23.3492 9.41288 24.1801 8.60336 25.2533 8.0225C26.3265 7.44159 27.5893 7.15113 29.0419 7.15113C29.5784 7.15113 30.0495 7.18208 30.4553 7.24387C30.861 7.30565 31.3518 7.39832 31.9275 7.52194C32.1892 7.57134 32.4182 7.6208 32.6146 7.67027C32.8109 7.71967 33.0136 7.74436 33.2231 7.74436C33.2885 7.74436 33.3605 7.74436 33.439 7.74436C33.5176 7.73205 33.5829 7.71967 33.6354 7.70735C33.6614 8.25112 33.6877 8.81346 33.7138 9.39431C33.74 9.97523 33.7792 10.5808 33.8316 11.2112C33.5699 11.2482 33.3473 11.2606 33.1642 11.2482C32.6538 9.01118 31.3125 7.89269 29.1401 7.89269C28.2632 7.89269 27.5172 8.05952 26.9023 8.39325C26.2872 8.7146 25.7898 9.15951 25.4104 9.72804C25.0309 10.2842 24.7561 10.9145 24.5859 11.619C24.4157 12.3235 24.3307 13.0588 24.3307 13.8251C24.3307 14.9127 24.5009 15.9138 24.8411 16.8284C25.1813 17.7429 25.7179 18.4722 26.4508 19.0159C27.1835 19.5597 28.1258 19.8316 29.2775 19.8316C30.3636 19.8316 31.2274 19.5597 31.8686 19.0159C32.5229 18.4722 32.994 17.6255 33.282 16.4762C33.3866 16.4762 33.4914 16.4762 33.5961 16.4762C33.7138 16.4762 33.8381 16.4823 33.9691 16.4947ZM29.0419 5.18605C29.4476 4.90179 29.8795 4.61752 30.3375 4.33327C30.7955 4.04901 31.2732 3.77093 31.7705 3.49902C31.9929 3.5361 32.1762 3.61643 32.3201 3.74003C32.0584 3.99957 31.7705 4.30855 31.4564 4.66696C31.1423 5.01303 30.8347 5.36526 30.5338 5.72367C30.2458 6.06974 29.9973 6.37256 29.7878 6.63206C29.6962 6.65676 29.5784 6.67533 29.4345 6.68771C29.3036 6.70003 29.1662 6.70622 29.0223 6.70622C28.9045 6.70622 28.7736 6.70003 28.6297 6.68771C28.4988 6.67533 28.381 6.65676 28.2763 6.63206C28.0669 6.37256 27.8117 6.06974 27.5107 5.72367C27.2098 5.36526 26.9023 5.01303 26.5881 4.66696C26.2872 4.30855 25.9992 3.99957 25.7244 3.74003C25.8815 3.62879 26.0646 3.54847 26.2741 3.49902C26.7713 3.77093 27.2491 4.04901 27.7071 4.33327C28.1782 4.60517 28.6232 4.88943 29.0419 5.18605Z" fill="#F5540C"/>
</mask>
<g mask="url(#mask1_400_5721)">
<path d="M34.0335 2.84009H24.6934V7.02625H34.0335V2.84009Z" fill="#F77C45"/>
</g>
<mask id="mask2_400_5721" style="mask-type:luminance" maskUnits="userSpaceOnUse" x="36" y="10" width="5" height="7">
<path d="M40.0522 10.3159H36.4111V16.8942H40.0522V10.3159Z" fill="white"/>
</mask>
<g mask="url(#mask2_400_5721)">
<path d="M50.3153 8.95813C51.467 9.10645 52.6382 9.2177 53.8291 9.29186C54.0386 9.97157 54.2282 10.6637 54.3984 11.3681C54.5685 12.0726 54.6536 12.8266 54.6536 13.6299C54.6536 15.0018 54.3656 16.1944 53.7898 17.2079C53.2141 18.2089 52.4092 18.9876 51.3753 19.5437C50.3285 20.0999 49.0983 20.378 47.6849 20.378C46.2584 20.378 45.0021 20.0999 43.9159 19.5437C42.8167 18.9876 41.9594 18.2028 41.3444 17.1893C40.7294 16.1759 40.4218 14.9832 40.4218 13.6113C40.4218 13.1046 40.4546 12.6597 40.52 12.2765C40.5853 11.8934 40.6835 11.4299 40.8144 10.8862C40.8668 10.639 40.9191 10.4227 40.9714 10.2373C41.0239 10.0519 41.05 9.86033 41.05 9.66261C41.05 9.60082 41.05 9.53285 41.05 9.45869C41.0368 9.38453 41.0239 9.32275 41.0107 9.27329C41.5865 9.24859 42.1821 9.22382 42.797 9.19912C43.4121 9.17442 44.0533 9.13734 44.7208 9.08788C44.76 9.33507 44.7732 9.54517 44.76 9.7182C42.3913 10.2002 41.207 11.467 41.207 13.5187C41.207 14.3468 41.3837 15.0512 41.737 15.6321C42.0772 16.2129 42.5483 16.6827 43.1504 17.041C43.7393 17.3994 44.4067 17.6589 45.1527 17.8197C45.8986 17.9804 46.6773 18.0607 47.4886 18.0607C48.6403 18.0607 49.7003 17.8999 50.6686 17.5786C51.6371 17.2573 52.4092 16.7505 52.985 16.0585C53.5608 15.3664 53.8487 14.4765 53.8487 13.3889C53.8487 12.3631 53.5608 11.5474 52.985 10.9417C52.4092 10.3238 51.5128 9.8789 50.2957 9.60702C50.2957 9.50809 50.2957 9.40923 50.2957 9.31037C50.2957 9.19912 50.3022 9.08175 50.3153 8.95813ZM38.341 13.6113C38.0401 13.2282 37.739 12.8204 37.438 12.3878C37.1371 11.9552 36.8426 11.5041 36.5547 11.0345C36.594 10.8244 36.679 10.6513 36.8099 10.5154C37.0847 10.7626 37.4119 11.0345 37.7914 11.3311C38.1579 11.6277 38.5309 11.9182 38.9103 12.2024C39.2768 12.4743 39.5973 12.7091 39.8722 12.9069C39.8983 12.9934 39.9179 13.1046 39.931 13.2406C39.9442 13.3642 39.9507 13.494 39.9507 13.6299C39.9507 13.7411 39.9442 13.8647 39.931 14.0006C39.9179 14.1243 39.8983 14.2355 39.8722 14.3344C39.5973 14.5321 39.2768 14.7731 38.9103 15.0574C38.5309 15.3416 38.1579 15.6321 37.7914 15.9287C37.4119 16.2129 37.0847 16.4849 36.8099 16.7444C36.6921 16.5961 36.6071 16.4231 36.5547 16.2253C36.8426 15.7557 37.1371 15.3045 37.438 14.872C37.726 14.427 38.027 14.0068 38.341 13.6113Z" fill="#F77C45"/>
</g>
</g>
</g>
<defs>
<clipPath id="clip0_400_5721">
<rect width="40" height="22" fill="white"/>
</clipPath>
</defs>
</svg>
