<svg xmlns="http://www.w3.org/2000/svg" width="32" height="32" viewBox="0 0 32 32" fill="none">
  <path d="M26.6641 5.33325H5.33073C3.86406 5.33325 2.6774 6.53325 2.6774 7.99992L2.66406 23.9999C2.66406 25.4666 3.86406 26.6666 5.33073 26.6666H26.6641C28.1307 26.6666 29.3307 25.4666 29.3307 23.9999V7.99992C29.3307 6.53325 28.1307 5.33325 26.6641 5.33325ZM26.1307 10.9999L16.7041 16.8933C16.2774 17.1599 15.7174 17.1599 15.2907 16.8933L5.86406 10.9999C5.73037 10.9249 5.61329 10.8235 5.51991 10.7019C5.42654 10.5802 5.35881 10.441 5.32083 10.2924C5.28285 10.1439 5.2754 9.98917 5.29894 9.83766C5.32248 9.68616 5.37651 9.541 5.45777 9.41099C5.53903 9.28097 5.64583 9.16879 5.7717 9.08125C5.89757 8.9937 6.03989 8.9326 6.19006 8.90165C6.34022 8.8707 6.49511 8.87054 6.64534 8.90118C6.79556 8.93182 6.93801 8.99263 7.06406 9.07992L15.9974 14.6666L24.9307 9.07992C25.0568 8.99263 25.1992 8.93182 25.3495 8.90118C25.4997 8.87054 25.6546 8.8707 25.8047 8.90165C25.9549 8.9326 26.0972 8.9937 26.2231 9.08125C26.349 9.16879 26.4558 9.28097 26.537 9.41099C26.6183 9.541 26.6723 9.68616 26.6959 9.83766C26.7194 9.98917 26.7119 10.1439 26.674 10.2924C26.636 10.441 26.5683 10.5802 26.4749 10.7019C26.3815 10.8235 26.2644 10.9249 26.1307 10.9999Z" fill="#4B4845"/>
</svg>