<svg width="30" height="30" viewBox="0 0 27 28" fill="none" xmlns="http://www.w3.org/2000/svg">
    <g id="Icons">
    <circle id="Ellipse 1" cx="13.5" cy="14.3553" r="8.52632" fill="white"/>
    <path id="Vector" d="M13.5037 2.75C19.7171 2.75 24.7537 7.78663 24.7537 14C24.7537 20.2134 19.7171 25.25 13.5037 25.25C11.5156 25.2532 9.56248 24.7271 7.84499 23.7256L2.25824 25.25L3.77924 19.661C2.77697 17.943 2.25042 15.989 2.25374 14C2.25374 7.78663 7.29036 2.75 13.5037 2.75ZM9.66974 8.7125L9.44474 8.7215C9.29908 8.73037 9.15672 8.76864 9.02624 8.834C8.9042 8.90311 8.7928 8.9895 8.69549 9.0905C8.56049 9.21763 8.48399 9.32788 8.40186 9.43475C7.98575 9.97577 7.76171 10.64 7.76511 11.3225C7.76736 11.8737 7.91136 12.4104 8.13636 12.9121C8.59649 13.9269 9.35361 15.0012 10.3526 15.9969C10.5934 16.2365 10.8296 16.4773 11.0839 16.7011C12.3252 17.794 13.8044 18.5822 15.4039 19.0029L16.0429 19.1007C16.251 19.112 16.4591 19.0963 16.6684 19.0861C16.996 19.0692 17.3159 18.9805 17.6055 18.8263C17.7528 18.7504 17.8966 18.6678 18.0364 18.5787C18.0364 18.5787 18.0847 18.5472 18.177 18.4775C18.3289 18.365 18.4222 18.2851 18.5482 18.1535C18.6416 18.0568 18.7226 17.9431 18.7845 17.8138C18.8722 17.6304 18.96 17.2805 18.996 16.9891C19.023 16.7664 19.0151 16.6449 19.0117 16.5695C19.0072 16.4491 18.9071 16.3243 18.798 16.2714L18.1432 15.9778C18.1432 15.9778 17.1645 15.5514 16.566 15.2791C16.5034 15.2518 16.4363 15.2361 16.368 15.233C16.291 15.2251 16.2132 15.2338 16.1399 15.2584C16.0665 15.283 15.9993 15.3231 15.9427 15.3759C15.9371 15.3736 15.8617 15.4377 15.0484 16.4233C15.0017 16.486 14.9374 16.5334 14.8636 16.5594C14.7899 16.5855 14.7101 16.589 14.6344 16.5695C14.5611 16.5498 14.4893 16.525 14.4195 16.4953C14.28 16.4368 14.2316 16.4142 14.136 16.3737C13.4903 16.092 12.8925 15.7113 12.3641 15.2454C12.2224 15.1216 12.0907 14.9866 11.9557 14.8561C11.5131 14.4323 11.1274 13.9528 10.8082 13.4296L10.7419 13.3228C10.6942 13.2509 10.6556 13.1735 10.6271 13.0921C10.5844 12.9268 10.6957 12.794 10.6957 12.794C10.6957 12.794 10.9691 12.4948 11.0962 12.3327C11.22 12.1753 11.3246 12.0223 11.3921 11.9131C11.5249 11.6994 11.5665 11.48 11.4967 11.3101C11.1817 10.5406 10.8555 9.7745 10.5202 9.014C10.4539 8.86325 10.257 8.75525 10.0781 8.73387C10.0174 8.72712 9.95661 8.72038 9.89586 8.71588C9.74478 8.70837 9.59339 8.70987 9.44249 8.72038L9.66974 8.7125Z" fill="#25D366"/>
    </g>
</svg>
